<?xml version="1.0" encoding="utf-8" standalone="no"?>
<!DOCTYPE svg PUBLIC "-//W3C//DTD SVG 1.1//EN"
  "http://www.w3.org/Graphics/SVG/1.1/DTD/svg11.dtd">
<svg xmlns:xlink="http://www.w3.org/1999/xlink" width="512.774219pt" height="316.468917pt" viewBox="0 0 512.774219 316.468917" xmlns="http://www.w3.org/2000/svg" version="1.1">
 <metadata>
  <rdf:RDF xmlns:dc="http://purl.org/dc/elements/1.1/" xmlns:cc="http://creativecommons.org/ns#" xmlns:rdf="http://www.w3.org/1999/02/22-rdf-syntax-ns#">
   <cc:Work>
    <dc:type rdf:resource="http://purl.org/dc/dcmitype/StillImage"/>
    <dc:date>2026-04-17T12:25:33.493209</dc:date>
    <dc:format>image/svg+xml</dc:format>
    <dc:creator>
     <cc:Agent>
      <dc:title>Matplotlib v3.10.8, https://matplotlib.org/</dc:title>
     </cc:Agent>
    </dc:creator>
   </cc:Work>
  </rdf:RDF>
 </metadata>
 <defs>
  <style type="text/css">*{stroke-linejoin: round; stroke-linecap: butt}</style>
 </defs>
 <g id="figure_1">
  <g id="patch_1">
   <path d="M 0 316.468917 
L 512.774219 316.468917 
L 512.774219 -0 
L 0 -0 
z
" style="fill: #ffffff"/>
  </g>
  <g id="axes_1">
   <g id="patch_2">
    <path d="M 53.014219 280.453448 
L 505.574219 280.453448 
L 505.574219 16.595 
L 53.014219 16.595 
z
" style="fill: #ffffff"/>
   </g>
   <g id="matplotlib.axis_1">
    <g id="xtick_1">
     <g id="line2d_1">
      <path d="M 85.480425 280.453448 
L 85.480425 16.595 
" clip-path="url(#pa81a0aef04)" style="fill: none; stroke-dasharray: 0.5,0.825; stroke-dashoffset: 0; stroke: #e2e8f0; stroke-opacity: 0.8; stroke-width: 0.5"/>
     </g>
     <g id="line2d_2">
      <defs>
       <path id="md4f299be47" d="M 0 0 
L 0 3.5 
" style="stroke: #000000; stroke-width: 0.8"/>
      </defs>
      <g>
       <use xlink:href="#md4f299be47" x="85.480425" y="280.453448" style="stroke: #000000; stroke-width: 0.8"/>
      </g>
     </g>
     <g id="text_1">
      <!-- 495500 -->
      <g transform="translate(71.406675 293.848448) scale(0.08 -0.08)">
       <defs>
        <path id="MicrosoftYaHei-34" d="M 2906 4841 
L 2906 1644 
L 3631 1644 
L 3631 1138 
L 2906 1138 
L 2906 0 
L 2313 0 
L 2313 1138 
L 53 1138 
L 53 1616 
Q 656 2294 1265 3178 
Q 1875 4063 2272 4841 
L 2906 4841 
z
M 741 1644 
L 2313 1644 
L 2313 3950 
Q 1988 3366 1616 2817 
Q 1244 2269 741 1644 
z
" transform="scale(0.015625)"/>
        <path id="MicrosoftYaHei-39" d="M 578 656 
Q 978 425 1441 425 
Q 2091 425 2448 937 
Q 2806 1450 2806 2394 
Q 2800 2388 2794 2394 
Q 2475 1788 1722 1788 
Q 1113 1788 713 2206 
Q 313 2625 313 3294 
Q 313 4006 750 4464 
Q 1188 4922 1884 4922 
Q 2606 4922 3012 4355 
Q 3419 3788 3419 2703 
Q 3419 1363 2894 641 
Q 2369 -81 1441 -81 
Q 931 -81 578 84 
L 578 656 
z
M 931 3372 
Q 931 2884 1181 2598 
Q 1431 2313 1872 2313 
Q 2253 2313 2512 2573 
Q 2772 2834 2772 3206 
Q 2772 3728 2514 4070 
Q 2256 4413 1834 4413 
Q 1444 4413 1187 4116 
Q 931 3819 931 3372 
z
" transform="scale(0.015625)"/>
        <path id="MicrosoftYaHei-35" d="M 3294 1494 
Q 3294 784 2823 350 
Q 2353 -84 1559 -84 
Q 878 -84 544 119 
L 544 744 
Q 1034 425 1544 425 
Q 2050 425 2361 704 
Q 2672 984 2672 1447 
Q 2672 1909 2348 2167 
Q 2025 2425 1434 2425 
Q 978 2425 613 2384 
L 791 4841 
L 3053 4841 
L 3053 4303 
L 1306 4303 
L 1206 2931 
L 1647 2950 
Q 2416 2950 2855 2567 
Q 3294 2184 3294 1494 
z
" transform="scale(0.015625)"/>
        <path id="MicrosoftYaHei-30" d="M 284 2325 
Q 284 3606 709 4264 
Q 1134 4922 1941 4922 
Q 3478 4922 3478 2441 
Q 3478 1216 3045 567 
Q 2613 -81 1831 -81 
Q 1094 -81 689 534 
Q 284 1150 284 2325 
z
M 909 2353 
Q 909 425 1888 425 
Q 2850 425 2850 2384 
Q 2850 4413 1906 4413 
Q 909 4413 909 2353 
z
" transform="scale(0.015625)"/>
       </defs>
       <use xlink:href="#MicrosoftYaHei-34"/>
       <use xlink:href="#MicrosoftYaHei-39" transform="translate(58.642578 0)"/>
       <use xlink:href="#MicrosoftYaHei-35" transform="translate(117.285156 0)"/>
       <use xlink:href="#MicrosoftYaHei-35" transform="translate(175.927734 0)"/>
       <use xlink:href="#MicrosoftYaHei-30" transform="translate(234.570312 0)"/>
       <use xlink:href="#MicrosoftYaHei-30" transform="translate(293.212891 0)"/>
      </g>
     </g>
    </g>
    <g id="xtick_2">
     <g id="line2d_3">
      <path d="M 142.103126 280.453448 
L 142.103126 16.595 
" clip-path="url(#pa81a0aef04)" style="fill: none; stroke-dasharray: 0.5,0.825; stroke-dashoffset: 0; stroke: #e2e8f0; stroke-opacity: 0.8; stroke-width: 0.5"/>
     </g>
     <g id="line2d_4">
      <g>
       <use xlink:href="#md4f299be47" x="142.103126" y="280.453448" style="stroke: #000000; stroke-width: 0.8"/>
      </g>
     </g>
     <g id="text_2">
      <!-- 496000 -->
      <g transform="translate(128.029376 293.848448) scale(0.08 -0.08)">
       <defs>
        <path id="MicrosoftYaHei-36" d="M 3181 4219 
Q 2803 4413 2391 4413 
Q 1763 4413 1381 3866 
Q 1000 3319 994 2372 
L 1009 2372 
Q 1353 3038 2106 3038 
Q 2734 3038 3109 2628 
Q 3484 2219 3484 1541 
Q 3484 831 3051 375 
Q 2619 -81 1947 -81 
Q 1209 -81 789 495 
Q 369 1072 369 2131 
Q 369 3413 920 4167 
Q 1472 4922 2372 4922 
Q 2888 4922 3181 4781 
L 3181 4219 
z
M 1031 1584 
Q 1031 1106 1286 765 
Q 1541 425 1963 425 
Q 2363 425 2613 719 
Q 2863 1013 2863 1475 
Q 2863 1975 2627 2253 
Q 2391 2531 1956 2531 
Q 1544 2531 1287 2250 
Q 1031 1969 1031 1584 
z
" transform="scale(0.015625)"/>
       </defs>
       <use xlink:href="#MicrosoftYaHei-34"/>
       <use xlink:href="#MicrosoftYaHei-39" transform="translate(58.642578 0)"/>
       <use xlink:href="#MicrosoftYaHei-36" transform="translate(117.285156 0)"/>
       <use xlink:href="#MicrosoftYaHei-30" transform="translate(175.927734 0)"/>
       <use xlink:href="#MicrosoftYaHei-30" transform="translate(234.570312 0)"/>
       <use xlink:href="#MicrosoftYaHei-30" transform="translate(293.212891 0)"/>
      </g>
     </g>
    </g>
    <g id="xtick_3">
     <g id="line2d_5">
      <path d="M 198.725828 280.453448 
L 198.725828 16.595 
" clip-path="url(#pa81a0aef04)" style="fill: none; stroke-dasharray: 0.5,0.825; stroke-dashoffset: 0; stroke: #e2e8f0; stroke-opacity: 0.8; stroke-width: 0.5"/>
     </g>
     <g id="line2d_6">
      <g>
       <use xlink:href="#md4f299be47" x="198.725828" y="280.453448" style="stroke: #000000; stroke-width: 0.8"/>
      </g>
     </g>
     <g id="text_3">
      <!-- 496500 -->
      <g transform="translate(184.652078 293.848448) scale(0.08 -0.08)">
       <use xlink:href="#MicrosoftYaHei-34"/>
       <use xlink:href="#MicrosoftYaHei-39" transform="translate(58.642578 0)"/>
       <use xlink:href="#MicrosoftYaHei-36" transform="translate(117.285156 0)"/>
       <use xlink:href="#MicrosoftYaHei-35" transform="translate(175.927734 0)"/>
       <use xlink:href="#MicrosoftYaHei-30" transform="translate(234.570312 0)"/>
       <use xlink:href="#MicrosoftYaHei-30" transform="translate(293.212891 0)"/>
      </g>
     </g>
    </g>
    <g id="xtick_4">
     <g id="line2d_7">
      <path d="M 255.348529 280.453448 
L 255.348529 16.595 
" clip-path="url(#pa81a0aef04)" style="fill: none; stroke-dasharray: 0.5,0.825; stroke-dashoffset: 0; stroke: #e2e8f0; stroke-opacity: 0.8; stroke-width: 0.5"/>
     </g>
     <g id="line2d_8">
      <g>
       <use xlink:href="#md4f299be47" x="255.348529" y="280.453448" style="stroke: #000000; stroke-width: 0.8"/>
      </g>
     </g>
     <g id="text_4">
      <!-- 497000 -->
      <g transform="translate(241.274779 293.848448) scale(0.08 -0.08)">
       <defs>
        <path id="MicrosoftYaHei-37" d="M 3422 4463 
Q 2659 3131 2223 1998 
Q 1788 866 1684 0 
L 1047 0 
Q 1163 853 1594 1947 
Q 2025 3041 2747 4300 
L 347 4300 
L 347 4841 
L 3422 4841 
L 3422 4463 
z
" transform="scale(0.015625)"/>
       </defs>
       <use xlink:href="#MicrosoftYaHei-34"/>
       <use xlink:href="#MicrosoftYaHei-39" transform="translate(58.642578 0)"/>
       <use xlink:href="#MicrosoftYaHei-37" transform="translate(117.285156 0)"/>
       <use xlink:href="#MicrosoftYaHei-30" transform="translate(175.927734 0)"/>
       <use xlink:href="#MicrosoftYaHei-30" transform="translate(234.570312 0)"/>
       <use xlink:href="#MicrosoftYaHei-30" transform="translate(293.212891 0)"/>
      </g>
     </g>
    </g>
    <g id="xtick_5">
     <g id="line2d_9">
      <path d="M 311.971231 280.453448 
L 311.971231 16.595 
" clip-path="url(#pa81a0aef04)" style="fill: none; stroke-dasharray: 0.5,0.825; stroke-dashoffset: 0; stroke: #e2e8f0; stroke-opacity: 0.8; stroke-width: 0.5"/>
     </g>
     <g id="line2d_10">
      <g>
       <use xlink:href="#md4f299be47" x="311.971231" y="280.453448" style="stroke: #000000; stroke-width: 0.8"/>
      </g>
     </g>
     <g id="text_5">
      <!-- 497500 -->
      <g transform="translate(297.897481 293.848448) scale(0.08 -0.08)">
       <use xlink:href="#MicrosoftYaHei-34"/>
       <use xlink:href="#MicrosoftYaHei-39" transform="translate(58.642578 0)"/>
       <use xlink:href="#MicrosoftYaHei-37" transform="translate(117.285156 0)"/>
       <use xlink:href="#MicrosoftYaHei-35" transform="translate(175.927734 0)"/>
       <use xlink:href="#MicrosoftYaHei-30" transform="translate(234.570312 0)"/>
       <use xlink:href="#MicrosoftYaHei-30" transform="translate(293.212891 0)"/>
      </g>
     </g>
    </g>
    <g id="xtick_6">
     <g id="line2d_11">
      <path d="M 368.593932 280.453448 
L 368.593932 16.595 
" clip-path="url(#pa81a0aef04)" style="fill: none; stroke-dasharray: 0.5,0.825; stroke-dashoffset: 0; stroke: #e2e8f0; stroke-opacity: 0.8; stroke-width: 0.5"/>
     </g>
     <g id="line2d_12">
      <g>
       <use xlink:href="#md4f299be47" x="368.593932" y="280.453448" style="stroke: #000000; stroke-width: 0.8"/>
      </g>
     </g>
     <g id="text_6">
      <!-- 498000 -->
      <g transform="translate(354.520182 293.848448) scale(0.08 -0.08)">
       <defs>
        <path id="MicrosoftYaHei-38" d="M 306 1350 
Q 306 1769 556 2122 
Q 806 2475 1200 2625 
Q 884 2803 700 3081 
Q 516 3359 516 3684 
Q 516 4028 692 4312 
Q 869 4597 1183 4759 
Q 1497 4922 1875 4922 
Q 2256 4922 2572 4761 
Q 2888 4600 3063 4315 
Q 3238 4031 3238 3684 
Q 3238 3366 3058 3086 
Q 2878 2806 2559 2625 
Q 2953 2472 3200 2119 
Q 3447 1766 3447 1350 
Q 3447 938 3250 611 
Q 3053 284 2690 103 
Q 2328 -78 1875 -78 
Q 1425 -78 1065 103 
Q 706 284 506 612 
Q 306 941 306 1350 
z
M 906 1378 
Q 906 947 1172 687 
Q 1438 428 1878 428 
Q 2309 428 2582 692 
Q 2856 956 2856 1378 
Q 2856 1778 2579 2051 
Q 2303 2325 1878 2325 
Q 1456 2325 1181 2058 
Q 906 1791 906 1378 
z
M 1081 3634 
Q 1081 3309 1312 3076 
Q 1544 2844 1878 2844 
Q 2206 2844 2445 3078 
Q 2684 3313 2684 3634 
Q 2684 3963 2454 4191 
Q 2225 4419 1878 4419 
Q 1534 4419 1307 4195 
Q 1081 3972 1081 3634 
z
" transform="scale(0.015625)"/>
       </defs>
       <use xlink:href="#MicrosoftYaHei-34"/>
       <use xlink:href="#MicrosoftYaHei-39" transform="translate(58.642578 0)"/>
       <use xlink:href="#MicrosoftYaHei-38" transform="translate(117.285156 0)"/>
       <use xlink:href="#MicrosoftYaHei-30" transform="translate(175.927734 0)"/>
       <use xlink:href="#MicrosoftYaHei-30" transform="translate(234.570312 0)"/>
       <use xlink:href="#MicrosoftYaHei-30" transform="translate(293.212891 0)"/>
      </g>
     </g>
    </g>
    <g id="xtick_7">
     <g id="line2d_13">
      <path d="M 425.216634 280.453448 
L 425.216634 16.595 
" clip-path="url(#pa81a0aef04)" style="fill: none; stroke-dasharray: 0.5,0.825; stroke-dashoffset: 0; stroke: #e2e8f0; stroke-opacity: 0.8; stroke-width: 0.5"/>
     </g>
     <g id="line2d_14">
      <g>
       <use xlink:href="#md4f299be47" x="425.216634" y="280.453448" style="stroke: #000000; stroke-width: 0.8"/>
      </g>
     </g>
     <g id="text_7">
      <!-- 498500 -->
      <g transform="translate(411.142884 293.848448) scale(0.08 -0.08)">
       <use xlink:href="#MicrosoftYaHei-34"/>
       <use xlink:href="#MicrosoftYaHei-39" transform="translate(58.642578 0)"/>
       <use xlink:href="#MicrosoftYaHei-38" transform="translate(117.285156 0)"/>
       <use xlink:href="#MicrosoftYaHei-35" transform="translate(175.927734 0)"/>
       <use xlink:href="#MicrosoftYaHei-30" transform="translate(234.570312 0)"/>
       <use xlink:href="#MicrosoftYaHei-30" transform="translate(293.212891 0)"/>
      </g>
     </g>
    </g>
    <g id="xtick_8">
     <g id="line2d_15">
      <path d="M 481.839335 280.453448 
L 481.839335 16.595 
" clip-path="url(#pa81a0aef04)" style="fill: none; stroke-dasharray: 0.5,0.825; stroke-dashoffset: 0; stroke: #e2e8f0; stroke-opacity: 0.8; stroke-width: 0.5"/>
     </g>
     <g id="line2d_16">
      <g>
       <use xlink:href="#md4f299be47" x="481.839335" y="280.453448" style="stroke: #000000; stroke-width: 0.8"/>
      </g>
     </g>
     <g id="text_8">
      <!-- 499000 -->
      <g transform="translate(467.765585 293.848448) scale(0.08 -0.08)">
       <use xlink:href="#MicrosoftYaHei-34"/>
       <use xlink:href="#MicrosoftYaHei-39" transform="translate(58.642578 0)"/>
       <use xlink:href="#MicrosoftYaHei-39" transform="translate(117.285156 0)"/>
       <use xlink:href="#MicrosoftYaHei-30" transform="translate(175.927734 0)"/>
       <use xlink:href="#MicrosoftYaHei-30" transform="translate(234.570312 0)"/>
       <use xlink:href="#MicrosoftYaHei-30" transform="translate(293.212891 0)"/>
      </g>
     </g>
    </g>
    <g id="text_9">
     <!-- X / m -->
     <g transform="translate(267.589297 307.031573) scale(0.09 -0.09)">
      <defs>
       <path id="MicrosoftYaHei-58" d="M 4034 0 
L 3275 0 
L 2194 1822 
Q 2156 1884 2084 2072 
L 2069 2072 
Q 2063 2047 1956 1819 
L 844 0 
L 81 0 
L 1691 2431 
L 209 4841 
L 975 4841 
L 1931 3166 
Q 2016 3019 2100 2822 
L 2113 2822 
Q 2188 2991 2297 3181 
L 3297 4841 
L 4013 4841 
L 2500 2441 
L 4034 0 
z
" transform="scale(0.015625)"/>
       <path id="MicrosoftYaHei-20" transform="scale(0.015625)"/>
       <path id="MicrosoftYaHei-2f" d="M 2791 4841 
L 469 -803 
L -103 -803 
L 2219 4841 
L 2791 4841 
z
" transform="scale(0.015625)"/>
       <path id="MicrosoftYaHei-6d" d="M 5522 0 
L 4909 0 
L 4909 1984 
Q 4909 2547 4734 2789 
Q 4559 3031 4159 3031 
Q 3822 3031 3581 2715 
Q 3341 2400 3341 1969 
L 3341 0 
L 2728 0 
L 2728 2047 
Q 2728 3031 1969 3031 
Q 1619 3031 1389 2731 
Q 1159 2431 1159 1966 
L 1159 0 
L 547 0 
L 547 3456 
L 1159 3456 
L 1159 2909 
L 1172 2909 
Q 1541 3538 2250 3538 
Q 2597 3538 2862 3347 
Q 3128 3156 3231 2831 
Q 3616 3538 4381 3538 
Q 5522 3538 5522 2131 
L 5522 0 
z
" transform="scale(0.015625)"/>
      </defs>
      <use xlink:href="#MicrosoftYaHei-58"/>
      <use xlink:href="#MicrosoftYaHei-20" transform="translate(64.501953 0)"/>
      <use xlink:href="#MicrosoftYaHei-2f" transform="translate(94.091797 0)"/>
      <use xlink:href="#MicrosoftYaHei-20" transform="translate(136.816406 0)"/>
      <use xlink:href="#MicrosoftYaHei-6d" transform="translate(166.40625 0)"/>
     </g>
    </g>
   </g>
   <g id="matplotlib.axis_2">
    <g id="ytick_1">
     <g id="line2d_17">
      <path d="M 53.014219 233.34135 
L 505.574219 233.34135 
" clip-path="url(#pa81a0aef04)" style="fill: none; stroke-dasharray: 0.5,0.825; stroke-dashoffset: 0; stroke: #e2e8f0; stroke-opacity: 0.8; stroke-width: 0.5"/>
     </g>
     <g id="line2d_18">
      <defs>
       <path id="me325b25255" d="M 0 0 
L -3.5 0 
" style="stroke: #000000; stroke-width: 0.8"/>
      </defs>
      <g>
       <use xlink:href="#me325b25255" x="53.014219" y="233.34135" style="stroke: #000000; stroke-width: 0.8"/>
      </g>
     </g>
     <g id="text_10">
      <!-- 5.4040 -->
      <g transform="translate(20.631719 236.53885) scale(0.08 -0.08)">
       <defs>
        <path id="MicrosoftYaHei-2e" d="M 372 322 
Q 372 491 487 606 
Q 603 722 775 722 
Q 950 722 1065 605 
Q 1181 488 1181 322 
Q 1181 159 1065 42 
Q 950 -75 772 -75 
Q 600 -75 486 42 
Q 372 159 372 322 
z
" transform="scale(0.015625)"/>
       </defs>
       <use xlink:href="#MicrosoftYaHei-35"/>
       <use xlink:href="#MicrosoftYaHei-2e" transform="translate(58.642578 0)"/>
       <use xlink:href="#MicrosoftYaHei-34" transform="translate(82.714844 0)"/>
       <use xlink:href="#MicrosoftYaHei-30" transform="translate(141.357422 0)"/>
       <use xlink:href="#MicrosoftYaHei-34" transform="translate(200 0)"/>
       <use xlink:href="#MicrosoftYaHei-30" transform="translate(258.642578 0)"/>
      </g>
     </g>
    </g>
    <g id="ytick_2">
     <g id="line2d_19">
      <path d="M 53.014219 176.718649 
L 505.574219 176.718649 
" clip-path="url(#pa81a0aef04)" style="fill: none; stroke-dasharray: 0.5,0.825; stroke-dashoffset: 0; stroke: #e2e8f0; stroke-opacity: 0.8; stroke-width: 0.5"/>
     </g>
     <g id="line2d_20">
      <g>
       <use xlink:href="#me325b25255" x="53.014219" y="176.718649" style="stroke: #000000; stroke-width: 0.8"/>
      </g>
     </g>
     <g id="text_11">
      <!-- 5.4045 -->
      <g transform="translate(20.631719 179.916149) scale(0.08 -0.08)">
       <use xlink:href="#MicrosoftYaHei-35"/>
       <use xlink:href="#MicrosoftYaHei-2e" transform="translate(58.642578 0)"/>
       <use xlink:href="#MicrosoftYaHei-34" transform="translate(82.714844 0)"/>
       <use xlink:href="#MicrosoftYaHei-30" transform="translate(141.357422 0)"/>
       <use xlink:href="#MicrosoftYaHei-34" transform="translate(200 0)"/>
       <use xlink:href="#MicrosoftYaHei-35" transform="translate(258.642578 0)"/>
      </g>
     </g>
    </g>
    <g id="ytick_3">
     <g id="line2d_21">
      <path d="M 53.014219 120.095947 
L 505.574219 120.095947 
" clip-path="url(#pa81a0aef04)" style="fill: none; stroke-dasharray: 0.5,0.825; stroke-dashoffset: 0; stroke: #e2e8f0; stroke-opacity: 0.8; stroke-width: 0.5"/>
     </g>
     <g id="line2d_22">
      <g>
       <use xlink:href="#me325b25255" x="53.014219" y="120.095947" style="stroke: #000000; stroke-width: 0.8"/>
      </g>
     </g>
     <g id="text_12">
      <!-- 5.4050 -->
      <g transform="translate(20.631719 123.293447) scale(0.08 -0.08)">
       <use xlink:href="#MicrosoftYaHei-35"/>
       <use xlink:href="#MicrosoftYaHei-2e" transform="translate(58.642578 0)"/>
       <use xlink:href="#MicrosoftYaHei-34" transform="translate(82.714844 0)"/>
       <use xlink:href="#MicrosoftYaHei-30" transform="translate(141.357422 0)"/>
       <use xlink:href="#MicrosoftYaHei-35" transform="translate(200 0)"/>
       <use xlink:href="#MicrosoftYaHei-30" transform="translate(258.642578 0)"/>
      </g>
     </g>
    </g>
    <g id="ytick_4">
     <g id="line2d_23">
      <path d="M 53.014219 63.473246 
L 505.574219 63.473246 
" clip-path="url(#pa81a0aef04)" style="fill: none; stroke-dasharray: 0.5,0.825; stroke-dashoffset: 0; stroke: #e2e8f0; stroke-opacity: 0.8; stroke-width: 0.5"/>
     </g>
     <g id="line2d_24">
      <g>
       <use xlink:href="#me325b25255" x="53.014219" y="63.473246" style="stroke: #000000; stroke-width: 0.8"/>
      </g>
     </g>
     <g id="text_13">
      <!-- 5.4055 -->
      <g transform="translate(20.631719 66.670746) scale(0.08 -0.08)">
       <use xlink:href="#MicrosoftYaHei-35"/>
       <use xlink:href="#MicrosoftYaHei-2e" transform="translate(58.642578 0)"/>
       <use xlink:href="#MicrosoftYaHei-34" transform="translate(82.714844 0)"/>
       <use xlink:href="#MicrosoftYaHei-30" transform="translate(141.357422 0)"/>
       <use xlink:href="#MicrosoftYaHei-35" transform="translate(200 0)"/>
       <use xlink:href="#MicrosoftYaHei-35" transform="translate(258.642578 0)"/>
      </g>
     </g>
    </g>
    <g id="text_14">
     <!-- Y / m -->
     <g transform="translate(14.394375 160.042818) rotate(-90) scale(0.09 -0.09)">
      <defs>
       <path id="MicrosoftYaHei-59" d="M 3828 4841 
L 2234 1781 
L 2234 0 
L 1606 0 
L 1606 1766 
L 53 4841 
L 769 4841 
L 1816 2697 
Q 1819 2694 1931 2388 
L 1941 2388 
Q 1978 2519 2069 2694 
L 3163 4841 
L 3828 4841 
z
" transform="scale(0.015625)"/>
      </defs>
      <use xlink:href="#MicrosoftYaHei-59"/>
      <use xlink:href="#MicrosoftYaHei-20" transform="translate(60.351562 0)"/>
      <use xlink:href="#MicrosoftYaHei-2f" transform="translate(89.941406 0)"/>
      <use xlink:href="#MicrosoftYaHei-20" transform="translate(132.666016 0)"/>
      <use xlink:href="#MicrosoftYaHei-6d" transform="translate(162.255859 0)"/>
     </g>
    </g>
    <g id="text_15">
     <!-- 1e6 -->
     <g transform="translate(53.014219 13.595) scale(0.08 -0.08)">
      <defs>
       <path id="MicrosoftYaHei-31" d="M 1781 0 
L 1781 4141 
Q 1638 3997 1295 3819 
Q 953 3641 663 3569 
L 663 4169 
Q 1047 4275 1484 4508 
Q 1922 4741 2156 4947 
L 2388 4947 
L 2388 0 
L 1781 0 
z
" transform="scale(0.015625)"/>
       <path id="MicrosoftYaHei-65" d="M 3363 1572 
L 944 1572 
Q 959 1019 1246 717 
Q 1534 416 2050 416 
Q 2631 416 3116 788 
L 3116 241 
Q 2659 -81 1906 -81 
Q 1156 -81 736 394 
Q 316 869 316 1713 
Q 316 2506 777 3022 
Q 1238 3538 1922 3538 
Q 2600 3538 2981 3102 
Q 3363 2666 3363 1881 
L 3363 1572 
z
M 2750 2063 
Q 2747 2531 2528 2787 
Q 2309 3044 1913 3044 
Q 1547 3044 1280 2772 
Q 1013 2500 944 2063 
L 2750 2063 
z
" transform="scale(0.015625)"/>
      </defs>
      <use xlink:href="#MicrosoftYaHei-31"/>
      <use xlink:href="#MicrosoftYaHei-65" transform="translate(58.642578 0)"/>
      <use xlink:href="#MicrosoftYaHei-36" transform="translate(115.380859 0)"/>
     </g>
    </g>
   </g>
   <g id="patch_3">
    <path d="M 53.014219 280.453448 
L 53.014219 16.595 
" style="fill: none; stroke: #000000; stroke-width: 0.8; stroke-linejoin: miter; stroke-linecap: square"/>
   </g>
   <g id="patch_4">
    <path d="M 505.574219 280.453448 
L 505.574219 16.595 
" style="fill: none; stroke: #000000; stroke-width: 0.8; stroke-linejoin: miter; stroke-linecap: square"/>
   </g>
   <g id="patch_5">
    <path d="M 53.014219 280.453448 
L 505.574219 280.453448 
" style="fill: none; stroke: #000000; stroke-width: 0.8; stroke-linejoin: miter; stroke-linecap: square"/>
   </g>
   <g id="patch_6">
    <path d="M 53.014219 16.595 
L 505.574219 16.595 
" style="fill: none; stroke: #000000; stroke-width: 0.8; stroke-linejoin: miter; stroke-linecap: square"/>
   </g>
   <g id="line2d_25">
    <path d="M 477.174859 43.349538 
L 99.663336 28.588566 
L 106.316673 34.943785 
L 106.510051 43.888699 
L 97.150715 50.916822 
L 97.152323 136.929763 
L 106.707245 140.491218 
L 107.412413 152.616063 
L 97.011536 157.262636 
L 97.011536 202.696352 
L 151.744206 202.473032 
L 151.744206 209.832624 
L 162.218715 209.832624 
L 161.469483 240.88406 
L 477.174859 241.7086 
L 477.174859 43.349538 
" clip-path="url(#pa81a0aef04)" style="fill: none; stroke: #1e3a8a; stroke-opacity: 0.9; stroke-width: 1.5; stroke-linecap: square"/>
   </g>
   <g id="PathCollection_1">
    <defs>
     <path id="m4bb989ec98" d="M 0 2.345208 
C 0.621956 2.345208 1.218523 2.098102 1.658312 1.658312 
C 2.098102 1.218523 2.345208 0.621956 2.345208 0 
C 2.345208 -0.621956 2.098102 -1.218523 1.658312 -1.658312 
C 1.218523 -2.098102 0.621956 -2.345208 0 -2.345208 
C -0.621956 -2.345208 -1.218523 -2.098102 -1.658312 -1.658312 
C -2.098102 -1.218523 -2.345208 -0.621956 -2.345208 0 
C -2.345208 0.621956 -2.098102 1.218523 -1.658312 1.658312 
C -1.218523 2.098102 -0.621956 2.345208 0 2.345208 
z
" style="stroke: #111827"/>
    </defs>
    <g clip-path="url(#pa81a0aef04)">
     <use xlink:href="#m4bb989ec98" x="73.585128" y="141.258116" style="fill: #111827; stroke: #111827"/>
     <use xlink:href="#m4bb989ec98" x="92.147182" y="194.947761" style="fill: #111827; stroke: #111827"/>
     <use xlink:href="#m4bb989ec98" x="110.927799" y="248.598903" style="fill: #111827; stroke: #111827"/>
     <use xlink:href="#m4bb989ec98" x="127.340456" y="122.329147" style="fill: #111827; stroke: #111827"/>
     <use xlink:href="#m4bb989ec98" x="144.629631" y="176.481966" style="fill: #111827; stroke: #111827"/>
     <use xlink:href="#m4bb989ec98" x="160.966413" y="231.637007" style="fill: #111827; stroke: #111827"/>
     <use xlink:href="#m4bb989ec98" x="198.469893" y="158.693378" style="fill: #111827; stroke: #111827"/>
     <use xlink:href="#m4bb989ec98" x="216.330958" y="212.427189" style="fill: #111827; stroke: #111827"/>
     <use xlink:href="#m4bb989ec98" x="234.305269" y="266.099848" style="fill: #111827; stroke: #111827"/>
     <use xlink:href="#m4bb989ec98" x="218.561893" y="33.348836" style="fill: #111827; stroke: #111827"/>
     <use xlink:href="#m4bb989ec98" x="270.751037" y="195.816354" style="fill: #111827; stroke: #111827"/>
     <use xlink:href="#m4bb989ec98" x="288.373154" y="249.647556" style="fill: #111827; stroke: #111827"/>
     <use xlink:href="#m4bb989ec98" x="361.202405" y="106.362677" style="fill: #111827; stroke: #111827"/>
     <use xlink:href="#m4bb989ec98" x="394.976714" y="216.108797" style="fill: #111827; stroke: #111827"/>
     <use xlink:href="#m4bb989ec98" x="468.207986" y="74.686806" style="fill: #111827; stroke: #111827"/>
     <use xlink:href="#m4bb989ec98" x="307.938562" y="124.703903" style="fill: #111827; stroke: #111827"/>
     <use xlink:href="#m4bb989ec98" x="325.730547" y="181.455704" style="fill: #111827; stroke: #111827"/>
     <use xlink:href="#m4bb989ec98" x="340.735563" y="233.564444" style="fill: #111827; stroke: #111827"/>
     <use xlink:href="#m4bb989ec98" x="378.010287" y="161.035293" style="fill: #111827; stroke: #111827"/>
     <use xlink:href="#m4bb989ec98" x="411.450522" y="268.459882" style="fill: #111827; stroke: #111827"/>
     <use xlink:href="#m4bb989ec98" x="485.00331" y="129.360554" style="fill: #111827; stroke: #111827"/>
     <use xlink:href="#m4bb989ec98" x="457.181281" y="224.926084" style="fill: #111827; stroke: #111827"/>
     <use xlink:href="#m4bb989ec98" x="447.388951" y="190.194852" style="fill: #111827; stroke: #111827"/>
     <use xlink:href="#m4bb989ec98" x="373.907406" y="143.865025" style="fill: #111827; stroke: #111827"/>
     <use xlink:href="#m4bb989ec98" x="438.414253" y="157.379731" style="fill: #111827; stroke: #111827"/>
     <use xlink:href="#m4bb989ec98" x="161.738747" y="51.893904" style="fill: #111827; stroke: #111827"/>
     <use xlink:href="#m4bb989ec98" x="236.194202" y="87.767782" style="fill: #111827; stroke: #111827"/>
     <use xlink:href="#m4bb989ec98" x="341.447877" y="53.029755" style="fill: #111827; stroke: #111827"/>
    </g>
   </g>
   <g id="legend_1">
    <g id="PathCollection_2">
     <g>
      <use xlink:href="#m4bb989ec98" x="68.214219" y="269.164698" style="fill: #111827; stroke: #111827"/>
     </g>
    </g>
    <g id="text_16">
     <!-- 钻孔 -->
     <g transform="translate(82.614219 271.264698) scale(0.08 -0.08)">
      <defs>
       <path id="MicrosoftYaHei-94bb" d="M 2750 2209 
L 3975 2209 
L 3975 5316 
L 4463 5316 
L 4463 4084 
L 6288 4084 
L 6288 3647 
L 4463 3647 
L 4463 2209 
L 5950 2209 
L 5950 -809 
L 5475 -809 
L 5475 -428 
L 3225 -428 
L 3225 -809 
L 2750 -809 
L 2750 2209 
z
M 2363 566 
Q 2356 334 2394 47 
Q 1900 -184 1444 -466 
Q 1250 -584 1175 -678 
L 838 -247 
Q 1044 -53 1044 222 
L 1044 1584 
L 144 1584 
L 144 2016 
L 1044 2016 
L 1044 2859 
L 569 2859 
L 569 3272 
Q 466 3109 356 2953 
Q 269 3128 88 3409 
Q 688 4209 1075 5341 
L 1550 5184 
Q 1381 4769 1188 4378 
L 2638 4378 
L 2638 3947 
L 966 3947 
Q 781 3609 578 3291 
L 2306 3291 
L 2306 2859 
L 1506 2859 
L 1506 2016 
L 2475 2016 
L 2475 1584 
L 1506 1584 
L 1506 97 
Q 1956 341 2363 566 
z
M 5475 1778 
L 3225 1778 
L 3225 3 
L 5475 3 
L 5475 1778 
z
" transform="scale(0.015625)"/>
       <path id="MicrosoftYaHei-5b54" d="M 88 1953 
Q 878 2144 1638 2338 
L 1638 3341 
L 2625 4459 
L 413 4459 
L 413 4916 
L 3288 4916 
L 3288 4428 
L 2138 3184 
L 2138 2469 
Q 2788 2641 3413 2816 
Q 3400 2503 3400 2291 
Q 2750 2125 2138 1959 
L 2138 78 
Q 2138 -691 1350 -691 
Q 1031 -691 544 -678 
Q 519 -472 456 -147 
Q 925 -191 1244 -191 
Q 1638 -191 1638 197 
L 1638 1825 
Q 906 1622 225 1416 
L 88 1953 
z
M 3856 5247 
L 4356 5247 
L 4356 259 
Q 4356 -159 4763 -159 
L 5219 -159 
Q 5638 -159 5700 278 
Q 5756 747 5781 1466 
Q 5963 1384 6319 1266 
Q 6238 309 6175 3 
Q 6050 -641 5294 -641 
L 4613 -641 
Q 3863 -641 3856 178 
L 3856 5247 
z
" transform="scale(0.015625)"/>
      </defs>
      <use xlink:href="#MicrosoftYaHei-94bb"/>
      <use xlink:href="#MicrosoftYaHei-5b54" transform="translate(100 0)"/>
     </g>
    </g>
   </g>
  </g>
 </g>
 <defs>
  <clipPath id="pa81a0aef04">
   <rect x="53.014219" y="16.595" width="452.56" height="263.858448"/>
  </clipPath>
 </defs>
</svg>
